<?xml version="1.0" encoding="utf-8"?>
<svg version="1.1" id="Layer_1" xmlns="http://www.w3.org/2000/svg" xmlns:xlink="http://www.w3.org/1999/xlink" x="0px" y="0px"
	 viewBox="0 0 600 600" style="enable-background:new 0 0 600 600;" xml:space="preserve">
<style type="text/css">
	.st0{fill:#FFFFFF;}
	.st1{fill:#241A16;}
	.st2{fill:#DDDCDB;}
	.st3{fill:#EEEDED;}
	.st4{fill:#231814;}
	.st5{fill:#231915;}
	.st6{fill:#231F20;}
	.st7{fill:#DCDCDD;}
</style>
<path d="M158.6,488.9c-20.4,0-39-8.3-52.5-23.3c-16-17.9-23.5-43.6-20.5-70.7c3.7-34.2,17.7-62,39.4-78.5
	c14.2-10.8,30.8-15.5,45.7-13.1c38.8,6.4,62,42.8,62,97.2C232.6,451,200.8,488.9,158.6,488.9z M162.8,307
	c-11.8,0-24.3,4.5-35.3,12.8c-20.8,15.8-34.2,42.6-37.8,75.6c-2.8,25.9,4.3,50.5,19.5,67.4c12.7,14.1,30.2,21.9,49.4,21.9
	c39.8,0,69.9-36.2,69.9-84.1c0-52.3-21.9-87.1-58.5-93.1C167.7,307.2,165.3,307,162.8,307z"/>
<path d="M169.6,479.2c-11.9,0-23-5.1-32.1-14.8c-14.5-15.5-22.2-40.9-20.5-67.9c2.8-45.5,30.9-82.5,62.7-82.5
	c11.9,0,23,5.1,32.1,14.8c14.5,15.5,22.2,40.9,20.5,67.9l-2.1-0.1l2.1,0.1C229.5,442.2,201.4,479.2,169.6,479.2z M179.6,318.1
	c-29.6,0-55.8,35.2-58.5,78.6c-1.6,25.9,5.7,50.2,19.4,64.8c8.3,8.8,18.4,13.5,29.1,13.5c29.6,0,55.8-35.3,58.5-78.6
	c1.6-25.9-5.7-50.2-19.4-64.8C200.4,322.8,190.4,318.1,179.6,318.1z"/>
<path class="st0" d="M229.3,326.7c0,0-39.4-53.6-95.4-22.3c-56,31.3-17.6,89.7-17.6,89.7s9,8.2,18,9s99.9-36.7,101.8-36.6
	C238.1,366.6,229.3,326.7,229.3,326.7"/>
<path class="st1" d="M134.6,404.6c-0.1,0-0.3,0-0.4,0c-9.4-0.8-18.5-9.1-18.9-9.4c-1-1.4-18.6-28.6-11.8-56.2
	c3.6-14.8,13.6-26.9,29.7-35.9c56.5-31.6,97,22.2,97.4,22.8l0.3,0.6c8.5,38.9,7.2,40.4,6.6,41.1l-0.5,0.6l-0.9,0
	c-0.9,0.2-10.8,4.1-22.3,8.6C176,391.4,141.5,404.6,134.6,404.6z M117.6,393.2c0.1,0,8.6,7.6,16.8,8.3c5.7,0.5,52.9-17.9,78.2-27.8
	c15-5.9,20.2-7.9,22.3-8.5c-0.1-4.1-3.5-21.9-7-37.9c-3.3-4.4-40.5-51.1-93.2-21.6c-15.3,8.6-24.8,20-28.2,33.9
	C100.1,365.9,117.3,392.8,117.6,393.2L117.6,393.2z M236.1,364.9c-0.1,0-0.1,0-0.2,0C236.1,364.9,236.2,364.9,236.1,364.9
	C236.2,364.9,236.2,364.9,236.1,364.9z M236.2,364.9L236.2,364.9L236.2,364.9z"/>
<path class="st2" d="M218.6,395.8c0.1-33.6-16.5-59.7-37.3-60.9c-24.2-1.4-44.7,23.6-47.8,59.5c-2.9,33.4,13.9,61.8,38.2,61.9
	C195.9,456.4,218.5,429.3,218.6,395.8"/>
<path class="st3" d="M186.1,439.1c-4.2,2.2-9,3.4-14.1,3.4c-15.9,0-29-11.6-30.9-27"/>
<path class="st0" d="M124.7,399.9c0,0,2.2,5.6,6.1,8.7c3.9,3.1,47.5,33.3,105.6,47c58.1,13.7,90.6,18.4,121.9,18.4l3.1-27.4
	L124.7,399.9z"/>
<path class="st1" d="M359.2,475h-0.9c-32.1,0-65.2-5-122.1-18.4c-61.4-14.5-105.6-46.8-106-47.2c-4.1-3.2-6.4-8.9-6.5-9.1l-0.7-1.8
	l1.9,0.4l237.7,46.8L359.2,475z M126.5,401.3c0.9,1.8,2.7,4.6,5,6.5c0.4,0.3,44.2,32.4,105.2,46.8c56.2,13.3,89.1,18.3,120.7,18.4
	l2.9-25.5L126.5,401.3z"/>
<path class="st2" d="M304.3,310.1c0,0.6,2.3,2,2.3,2l1.8,4.3c0,0-5.7-1.4-6.5,3.9c-0.8,5.3,41.9,68.3,41.9,68.3l2.4,0.4
	c0,0,4-43.6-8.1-59.3C326,314,326,311.4,326,311.4L304.3,310.1z"/>
<path class="st4" d="M347.1,390.2l-3.9-0.7l-0.3-0.4c-7.2-10.6-42.9-63.6-42.1-69.1c0.3-1.8,1-3.1,2.3-4c1.2-0.8,2.5-1,3.6-1l-1-2.4
	c-2.6-1.5-2.6-2.3-2.6-2.7v-1.1l23.8,1.5v1c0,0,0.7,3.1,11.9,17.6c12.2,15.8,8.5,58.2,8.3,60L347.1,390.2z M344.4,387.6l0.8,0.1
	c0.5-6.9,2.7-43.6-8-57.4c-8.8-11.4-11.3-16.1-12-17.9l-17.8-1.1l2.7,6.5l-2-0.5c0,0-2.3-0.5-3.8,0.5c-0.8,0.5-1.2,1.4-1.4,2.5
	C302.6,324.3,328.1,363.5,344.4,387.6z"/>
<polygon class="st0" points="341.3,303.8 347.5,319.5 331.1,320.2 326,311.4 "/>
<path class="st1" d="M330.2,321.8l-6.4-11.1l18.3-9.1l7.7,19.3L330.2,321.8z M328.2,312.1l3.8,6.6l13.3-0.6l-4.8-12.1L328.2,312.1z"
	/>
<polygon class="st0" points="306,112.1 240.4,115.8 218.7,108.2 219.5,100.6 306,98.2 "/>
<path class="st1" d="M240.4,116.4c-0.1,0-0.1,0-0.2,0l-21.7-7.6c-0.2-0.1-0.4-0.3-0.3-0.5l0.8-7.7c0-0.3,0.2-0.5,0.5-0.5l86.5-2.3
	c0.1,0,0.3,0,0.4,0.1c0.1,0.1,0.2,0.2,0.2,0.4v13.9c0,0.3-0.2,0.5-0.5,0.5L240.4,116.4C240.5,116.4,240.4,116.4,240.4,116.4z
	 M219.3,107.9l21.2,7.5l65-3.7V98.7l-85.5,2.3L219.3,107.9z"/>
<path class="st0" d="M304.8,32.9L228,43c-2,0.3-3.5,1.8-3.7,3.8l-4.8,53.8c-0.2,2.6,2,4.8,4.6,4.6l79.8-6.8c2.2-0.2,3.9-2,3.9-4.2
	l0.3-58.3C308.2,34,306.6,32.6,304.8,32.9"/>
<path class="st1" d="M223.7,106.7c-1.5,0-3-0.6-4.1-1.7c-1.2-1.2-1.8-2.9-1.7-4.6l4.8-53.8c0.2-2.7,2.3-4.9,5-5.2l76.8-10.1
	c1.3-0.2,2.6,0.2,3.6,1.1c1,0.9,1.5,2.1,1.5,3.4l-0.3,58.3c0,3-2.3,5.5-5.3,5.7l-79.8,6.8C224.1,106.7,223.9,106.7,223.7,106.7z
	 M305,34.4l-76.8,10.1c-1.2,0.2-2.2,1.2-2.3,2.4l-4.8,53.8c-0.1,0.8,0.2,1.6,0.8,2.1c0.6,0.6,1.3,0.8,2.1,0.8l79.8-6.8
	c1.4-0.1,2.4-1.3,2.4-2.6l0.3-58.3c0-0.4-0.2-0.8-0.5-1.1C305.8,34.5,305.4,34.4,305,34.4L305,34.4z"/>
<path class="st0" d="M326.2,31.5c-8.9,1-18.4,9-22.1,27.1c-4.4,21.9-0.4,52-0.4,52s2.7,8.2-6.3,8.8c-9,0.6-56.4,2.9-76.2,4.1
	c-2.8,0.2-5.5-0.2-6.1-9.6c-0.7-11.7-1.2-36.3-1.2-36.3s-0.6-17.1,10-25.9l0.4-5.9c0,0-22.7,8.4-22.3,35.6
	c0.4,27.2,1.6,37.2,1.6,37.2s0.8,17.2,6.7,23.9c5.9,6.7,11.7,8,17.2,8.8c4.8,0.7,20.7,2,25.3,2.3c0.7,0.1,5.6,0.1,6.3,0.1l44.8-1
	c0,0,27-3.3,34.3-4.7c7.2-1.4,19.6-6.3,21.5-21.7s3.5-35.9,4.1-49.9C364.9,54.8,349.5,28.9,326.2,31.5"/>
<path class="st1" d="M258,155.3c-1.7,0-4.7,0-5.3-0.1l-1.7-0.1c-6.2-0.5-19.2-1.6-23.6-2.2c-5.5-0.8-11.9-2.2-18.2-9.3
	c-6.2-7-7-24.1-7-24.8c0-0.3-1.2-10.3-1.6-37.2c-0.4-28,23.1-37,23.3-37.1l2.3-0.8l-0.6,9l-0.5,0.4c-9.8,8.2-9.4,24.5-9.4,24.7
	c0,0.3,0.5,24.7,1.2,36.3c0.5,8.4,2.4,8.3,4.4,8.1c10.5-0.6,28.9-1.6,45.2-2.4c14.2-0.7,26.8-1.4,31-1.7c2.2-0.1,3.7-0.8,4.5-2
	c1.3-1.9,0.4-4.8,0.4-4.8c-0.2-1.5-4-30.9,0.4-52.8c3.3-16.5,12.1-27.1,23.4-28.4l0,0c9-1,17.5,2,24.6,8.7
	c9.6,9.1,15.4,23.9,14.7,37.8c-0.6,12.9-2.1,33.7-4.2,50c-2.2,17.3-16.7,21.9-22.8,23.1c-7.2,1.4-33.3,4.6-34.4,4.7l-45,1.1
	C258.9,155.3,258.5,155.3,258,155.3z M222.6,48.3c-5.6,2.9-19.3,12.1-19,33.1c0.4,26.8,1.5,36.9,1.6,37c0,0.3,0.8,16.9,6.3,23
	c5.6,6.3,11.1,7.6,16.3,8.3c4.3,0.6,17.7,1.7,23.4,2.2l1.8,0.1c0.6,0,5.4,0.1,6.1,0.1l44.8-1c0.1,0,26.9-3.3,34-4.7
	c6.8-1.3,18.4-5.6,20.3-20.4c2.1-16.3,3.5-37,4.1-49.8c0.6-13-4.8-26.9-13.8-35.4c-6.4-6-14-8.7-22.1-7.8
	c-9.9,1.1-17.6,10.8-20.7,25.9c-4.3,21.4-0.5,51.2-0.4,51.5c0,0,0,0,0,0c0,0,1.3,4.1-0.8,7.2c-1.3,2-3.7,3.1-6.9,3.3
	c-4.2,0.3-16.8,0.9-31,1.7c-16.2,0.8-34.6,1.8-45.2,2.4c-4.3,0.3-7.1-1.5-7.7-11.1c-0.7-11.6-1.2-36.2-1.2-36.4
	c0-0.7-0.5-17.4,10-26.7L222.6,48.3z"/>
<path class="st5" d="M230.1,96.5c-1.1,0-2.2-0.4-3-1.2c-0.9-0.9-1.4-2.2-1.3-3.4l3.5-37.9c0.2-2,1.7-3.6,3.7-3.8l65.8-8.2
	c1.3-0.2,2.6,0.3,3.5,1.2c0.9,0.9,1.4,2.2,1.2,3.5l-3.2,38.3c-0.4,3.4-3.1,6.2-6.5,6.5l0,0l-63.4,5.1
	C230.4,96.5,230.2,96.5,230.1,96.5z M299.4,43.9c-0.1,0-0.2,0-0.3,0l-65.8,8.2c-1,0.1-1.8,0.9-1.9,2l-3.5,37.9
	c-0.1,0.7,0.2,1.3,0.6,1.8c0.5,0.5,1.1,0.7,1.8,0.6l63.4-5.1c2.4-0.3,4.4-2.2,4.7-4.7l3.2-38.3c0.1-0.7-0.2-1.3-0.6-1.8
	C300.6,44.2,300,43.9,299.4,43.9z"/>
<line class="st0" x1="259" y1="114.8" x2="259" y2="121.5"/>
<rect x="258.5" y="114.8" class="st1" width="1" height="6.7"/>
<path d="M307.8,35l-2.2-3.5c0.3-0.2,7.8-4.7,21-2.1l-0.8,4.1C314.3,31.2,307.9,35,307.8,35z"/>
<path class="st1" d="M346.9,130.4c-3.6,0-7-1.6-9.4-4.5c-7.1-8.4-8.9-50.5-9-52.3c0-7.4,0.9-20.9,7.7-27.5c2.5-2.4,5.5-3.6,8.9-3.6
	c0.1,0,0.3,0,0.4,0c3.4,0.1,6.5,1.6,9.1,4.4c6.7,7.2,8.5,20.6,8.3,24.3c0,1.8-1.2,45.6-6.1,53.8c-1.8,3-5.2,5-9,5.3
	C347.6,130.4,347.2,130.4,346.9,130.4z M345.1,44.6c-2.9,0-5.4,1-7.5,3.1c-4.5,4.4-7.1,13.9-7,25.9c0,0.4,1.9,43.1,8.5,51
	c2.2,2.6,5.3,4,8.6,3.7c3.1-0.2,5.9-1.9,7.4-4.3l0,0c4.6-7.7,5.8-52.3,5.8-52.8c0.2-4.1-1.8-16.5-7.8-22.8c-2.2-2.4-4.8-3.7-7.7-3.7
	C345.3,44.6,345.2,44.6,345.1,44.6z"/>
<polygon points="255.6,165.2 254.8,153.8 259,153.5 259.5,161 300.7,160.4 301.2,152.5 305.4,152.8 304.6,164.5 "/>
<path d="M322.5,312.9c-21,0-45.7-5.4-69-15.2c-31-13.1-34.4-33.8-34.4-42.1l-1.2-73.4c0-11.6,4.4-16.2,17.4-18.5
	c7.7-1.4,18.3-3.2,37.3-3.6c19.5-0.5,29.4,0.1,38.2,1.1l1,0.1c18.1,2.3,21.5,7.6,28.1,20.5c4.9,9.6,7.5,19.1,10.2,37.5
	c2.6,17.9,3.4,45.7,2.4,59.4c-1.4,18.7-11.3,33.3-23.1,34C327.2,312.9,324.9,312.9,322.5,312.9z M284.9,164.1c-3.6,0-7.6,0-12.1,0.2
	c-18.7,0.4-29.1,2.3-36.7,3.6c-11.1,1.9-13.9,4.9-13.9,14.4l1.2,73.4c0,9.3,4.1,26.6,31.8,38.3c25.4,10.7,52.3,16,74.1,14.7
	c9.6-0.6,18-13.8,19.2-30.2c1-13.5,0.2-40.8-2.3-58.5c-2.6-17.9-5.1-27-9.8-36.2c-6-11.8-8.3-16.2-25-18.3l-0.9-0.1
	C303.8,164.6,296.6,164.1,284.9,164.1z"/>
<path class="st0" d="M258.1,255.6l-1.1-71.1c0-10.8,3.7-18.3,15.4-20.4c6.4-1.1,14.6-1.5,27.7-1.8c-6.8-0.4-15.2-0.5-27.4-0.2
	c-18.8,0.4-29.2,2.2-37,3.6c-11.7,2-15.7,5.7-15.7,16.4l1.2,73.5c0,10.8,5.5,28.5,33.1,40.1c21.6,9.1,49.5,16.4,75,14.9
	c2.6-0.2,5.1-1.1,7.4-2.7c-15.6-1-30.6-4-44.4-9.8C264.7,286.5,258.1,266.4,258.1,255.6"/>
<path class="st6" d="M322.5,312.4c-20.9,0-45.5-5.4-68.8-15.2c-30.7-12.9-34-33.4-34-41.6l-1.2-73.4c0-11.2,4.3-15.8,17-18
	c7.7-1.3,18.3-3.2,37.2-3.6c11.4-0.3,20.1-0.2,27.5,0.2l0,3.1c-13.4,0.3-21.3,0.7-27.5,1.8c-9.8,1.7-14.1,7.5-14.1,18.8l1.1,71.1
	c0,4.5,1.6,27.7,33.3,41c13,5.5,27.3,8.6,43.9,9.7l4.5,0.3l-3.8,2.6c-2.6,1.8-5.4,2.8-8.2,3C327.2,312.3,324.9,312.4,322.5,312.4z
	 M267.4,163.9c-15.4,0.6-24.5,2.2-31.4,3.4c-11.3,2-14.4,5.2-14.4,14.9l1.2,73.4c0,9.4,4.2,26.9,32.1,38.7
	c25.4,10.7,52.5,16.1,74.3,14.8c0.3,0,0.7-0.1,1-0.1c-14.3-1.4-26.9-4.5-38.5-9.4c-33.5-14.1-35.2-39-35.2-43.9l-1.1-71.1
	C255.4,173.6,259.2,166.9,267.4,163.9z"/>
<path class="st0" d="M350.5,278.5c1-13.5,0.3-41-2.4-58.9c-2.5-17.2-5-27-10-36.8c-6.2-12.2-9.1-17.2-26.6-19.4
	c-0.3,0-0.6-0.1-0.9-0.1c-3.2-0.4-6.6-0.7-10.5-0.9c-13.1,0.3-21.4,0.7-27.7,1.8c-11.7,2-15.4,9.6-15.4,20.4l1.1,71.1
	c0,10.8,6.6,30.8,34.3,42.5c13.8,5.8,28.8,8.8,44.4,9.8C344,303,349.5,291.7,350.5,278.5"/>
<path class="st1" d="M337.3,310.1l-0.7,0c-16.8-1.1-31.9-4.5-45.1-10c-33.8-14.2-35.5-39.5-35.5-44.4l-1.1-71
	c0-13.1,5.6-20.4,17.1-22.4c6.4-1.1,14.5-1.5,28.1-1.8c3.8,0.2,7.2,0.5,10.8,0.9l0.8,0.1c18.3,2.3,21.7,7.6,28.3,20.5
	c4.9,9.6,7.5,19.1,10.2,37.5c2.6,18,3.4,45.7,2.4,59.4l0,0c-1,13.6-6.6,25.5-14.6,31L337.3,310.1z M300,164.5
	c-13.2,0.3-21.1,0.7-27.3,1.8c-9.6,1.7-13.7,7.2-13.7,18.3l1.1,71c0,4.5,1.6,27.4,33,40.6c12.7,5.4,26.8,8.5,43,9.6
	c6.6-4.9,11.4-15.6,12.3-27.4c1-13.5,0.3-40.8-2.3-58.5c-2.6-17.9-5.1-27-9.8-36.2c-6-11.8-8.3-16.2-25-18.3l-0.9-0.1
	C306.8,164.9,303.5,164.7,300,164.5z"/>
<path class="st2" d="M250,238.2h-1.5c-2.7,0-4.9-2.2-4.9-4.9v-23.2c0-2.7,2.2-4.9,4.9-4.9h1.5c2.7,0,4.9,2.2,4.9,4.9v23.2
	C254.9,236,252.7,238.2,250,238.2"/>
<path class="st2" d="M225,237.6L225,237.6c-1.7,0-3-1.3-3-2.9v-26.6c0-1.6,1.3-2.9,2.9-2.9h0.1c1.6,0,2.9,1.3,2.9,2.9v26.6
	C227.9,236.3,226.6,237.6,225,237.6"/>
<path class="st2" d="M241.8,197.8c0.8-1.5,1.3-3.4,1.3-5.4c0-5.2-3.1-9.4-6.9-9.4c-3.8,0-6.9,4.2-6.9,9.4c0,2,0.5,3.9,1.3,5.4V219
	c0,0.3,0,0.6,0,0.9c0,4.2,2.5,7.7,5.7,7.7c3.1,0,5.7-3.4,5.7-7.7c0-0.3,0-0.6,0-0.9V197.8z"/>
<path class="st4" d="M236.2,228c-3.4,0-6.2-3.7-6.2-8.2c0-0.3,0-0.6,0-0.9l0-21c-0.8-1.6-1.3-3.5-1.3-5.5c0-5.4,3.3-9.9,7.4-9.9
	c4.1,0,7.4,4.4,7.4,9.9c0,2-0.4,3.9-1.3,5.5v21c0,0.3,0,0.6,0,0.9C242.4,224.3,239.6,228,236.2,228z M236.2,183.6
	c-3.5,0-6.4,4-6.4,8.8c0,1.9,0.4,3.6,1.2,5.2l0.1,0.2V219c0,0.3,0,0.6,0,0.9c0,4,2.3,7.2,5.1,7.2c2.8,0,5.1-3.2,5.1-7.2
	c0-0.3,0-0.5,0-0.8l0-21.3l0.1-0.1c0.8-1.5,1.2-3.3,1.2-5.2C242.6,187.5,239.7,183.6,236.2,183.6z"/>
<path class="st0" d="M236.1,225.2L236.1,225.2c-2.2,0-4.1-1.8-4.1-4.1v-9.4c0-2.2,1.8-4.1,4.1-4.1c2.2,0,4.1,1.8,4.1,4.1v9.4
	C240.2,223.3,238.4,225.2,236.1,225.2"/>
<path class="st2" d="M289.5,204.2c-2.8,3.2-8.4,7.9-12.4,11.5c-6,5.3-14.5,1.6-14.5-6.4v-29.3c0-7.9,6.4-13.5,14.3-13.5l6.6-0.3
	c5.5-0.3,8.5,4.1,8.5,9.6l1.2,18.9C293.4,198.2,292.2,201.1,289.5,204.2"/>
<path class="st0" d="M220.5,239.8l-29.2,27.6c0,0-11.9,17,3.3,28.2c5.3,3.1,16.8,5.9,16.8,5.9s11.9,1,16.4-3.9
	c4.5-4.9,11.6-11.2,11.6-11.2l-11.4-37.6C228.1,248.8,226.7,242.1,220.5,239.8"/>
<path class="st1" d="M214,302.6c-1.5,0-2.5-0.1-2.6-0.1c-0.6-0.1-11.9-2.8-17.3-6c-16-11.7-3.8-29.5-3.6-29.7l29.8-28.2l0.6,0.2
	c6.7,2.5,8.2,9.5,8.3,9.8l11.5,38.1l-0.5,0.4c-0.1,0.1-7.1,6.3-11.5,11.1C225.2,302,217.9,302.6,214,302.6z M211.7,300.4
	c0.2,0,11.4,0.8,15.4-3.6c3.8-4.1,9.4-9.3,11.1-10.8l-11.2-37c0-0.1-1.3-5.8-6.4-8.1L192,268.1c-0.3,0.5-11,16.2,3.2,26.6
	C200.2,297.7,211.6,300.4,211.7,300.4C211.7,300.4,211.7,300.4,211.7,300.4z"/>
<path class="st2" d="M136.6,390.5c0,0-5,8.6-2.3,12.5c2.7,3.9,60.6,16.8,87.1,22.7c26.5,5.9,115.7,23.9,127.5,23.9l2-16.1"/>
<path d="M350.7,451.7h-1.8c-12,0-101.1-18-127.9-23.9c-70.9-15.7-86.3-20.7-88.3-23.5c-3.4-4.9,1.6-13.8,2.2-14.8l3.6,2.1
	c-1.8,3-3.7,8.4-2.4,10.3c2.8,2.4,31.7,9.8,85.8,21.9c24.9,5.5,108.2,22.4,125.2,23.7l1.8-14.1l4.1,0.5L350.7,451.7z"/>
<path class="st2" d="M228.1,248.8L203,271.9c0,0-8.4,13.7,1.2,20.4c9.6,6.7,18,6.1,20.2,5.1c2.2-1,14.5-12.1,14.5-12.1L228.1,248.8z
	"/>
<path class="st0" d="M223.5,369.1l-83.7,16.6c-4.4,0.9-4.5,7.1-0.1,8.1l61.5,14.5c2.1,0.5,4.2,0.4,6.3-0.3l78-25.3L232,369.3
	C229.2,368.6,226.3,368.5,223.5,369.1"/>
<path class="st1" d="M203.8,410.1c-1,0-2-0.1-3-0.4l-61.5-14.5c-2.7-0.6-4.5-2.9-4.4-5.7s1.9-5,4.6-5.5l83.7-16.6
	c3-0.6,6.2-0.5,9.3,0.2l58.6,14.7l-83.1,27C206.5,409.9,205.1,410.1,203.8,410.1z M223.8,370.6L140,387.1c-1.5,0.3-2.1,1.5-2.1,2.5
	c0,1,0.5,2.2,2,2.6l61.5,14.5c1.8,0.4,3.7,0.3,5.4-0.2l72.8-23.6l-48.1-12.1C229.1,370.2,226.3,370.1,223.8,370.6L223.8,370.6z"/>
<path d="M328.6,170.2l-1.3-4c0.6-0.2,15.6-5.1,26.9-1.9l-1.1,4C343,165.5,328.7,170.1,328.6,170.2z"/>
<path class="st0" d="M323.8,185.7l2.2-2c0,0,4.9-0.8,7-3.8c2.1-3,7-8.7,12.2-11.1c5.2-2.4,14.6-4.1,20,1.5c5.4,5.6,10,19.7,2.3,28.9
	c-7.6,9.2-17.8,24.7-25.9,27.1c0,0-13.8,16.2-24.8,26.9c-11,10.7-21.6,20.7-29.4,26.5c-7.7,5.9-11,8.8-17.5,16.4
	c-6.6,7.6-20.3,13-34.7,6c-14.4-7-13.9-11.7-13.8-17.8c0.1-6.2-0.5-9.4,10.9-20.2c11.4-10.8,19.1-18,19.1-18s2.3-2.9,4.2-2.8
	c1.9,0.1,3.9,0.4,5.8-1.3c1.9-1.7,19.3-14.1,24.7-19.2C291.4,217.8,323.8,185.7,323.8,185.7"/>
<path class="st1" d="M248.9,307.1c-4.6,0-9.4-1-14.4-3.5c-14.9-7.3-14.8-12.6-14.7-18.7l0-1.4c0.1-6.4,0.6-10.2,11.3-20.3
	c11.4-10.8,19.1-18,19.1-18c0.3-0.4,2.7-3.4,5.4-3.3l0.5,0c1.8,0.1,3,0.1,4.1-0.9c0.6-0.6,2.7-2.1,6.2-4.7
	c5.9-4.4,14.9-11.1,18.4-14.4c5.3-5,37.4-36.9,37.8-37.2l2.5-2.3l0.4-0.1c1.2-0.2,4.5-1.2,5.9-3.2c2.2-3.1,7.3-9.1,12.9-11.6
	c5.2-2.3,15.6-4.6,21.7,1.8c5.4,5.6,10.9,20.8,2.4,31c-1.7,2-3.5,4.4-5.4,6.9c-6.6,8.6-14.1,18.3-20.8,20.6
	c-2,2.4-14.6,16.9-24.6,26.7c-13.5,13.1-22.9,21.6-29.5,26.7c-7.5,5.7-10.6,8.5-17.3,16.2C266.3,302.8,258.3,307.1,248.9,307.1z
	 M255.5,245c-0.6,0-1.9,1.1-2.9,2.3c-0.2,0.2-7.9,7.4-19.2,18.2c-10.3,9.7-10.3,12.7-10.4,18.1l0,1.5c-0.1,5.7-0.2,9.5,12.9,15.9
	c13.5,6.6,26.5,1.7,32.8-5.6c6.8-7.9,10.2-10.9,17.8-16.7c8.6-6.5,20.8-18.2,29.2-26.4c10.8-10.5,24.5-26.7,24.7-26.8l0.3-0.4
	l0.4-0.1c5.8-1.8,13.5-11.7,19.7-19.7c1.9-2.5,3.8-4.9,5.5-6.9c7.2-8.6,2.3-22-2.3-26.8c-5-5.2-14.1-3-18.2-1.1
	c-4.9,2.2-9.7,7.9-11.6,10.5c-2,2.9-6.1,4.1-7.5,4.4l-1.8,1.6c-1,1-32.5,32.2-37.8,37.2c-3.6,3.4-12.3,9.9-18.7,14.7
	c-2.9,2.2-5.4,4-6,4.6c-2.2,2-4.5,1.8-6.4,1.7L255.5,245C255.5,245,255.5,245,255.5,245z"/>
<path class="st1" d="M342.1,226.4l-1-0.2c5.2-30.7-15.4-41.6-15.6-41.8l0.5-0.9C326.1,183.7,347.4,195,342.1,226.4z"/>
<path d="M297.2,264.1c-2.3,0-4.6-0.7-6.9-2.2c-1.8-1.1-3.6-3.9-3.6-4c-7.1-12.5-4.7-26.2,6.3-36.7l23.7-22.7c2.2-2.1,5.1-3,8.1-2.6
	c3,0.4,5.5,2.2,7,4.8l0.9,1.6c6.5,11.6,4.5,26.4-4.9,35.8l-21.9,22C303.3,262.8,300.3,264.1,297.2,264.1z M323.3,196.9
	c-2.2,0-4.3,0.8-5.9,2.4L293.7,222c-10.6,10.2-12.9,23.4-6.1,35.4c0,0,1.7,2.6,3.3,3.7c4.9,3.1,10.1,2.5,14.3-1.6l21.9-22
	c9.1-9.1,11-23.3,4.7-34.6l-0.9-1.6c-1.3-2.3-3.6-3.9-6.3-4.3C324.2,196.9,323.7,196.9,323.3,196.9z"/>
<path class="st1" d="M256.3,303.1c-7.7,0-18.6-2.8-23.7-8c-11-11.3-3-22.9-1.3-25.1c0.8-1,8.8-8.3,17.7-16.3
	c3.5-3.2,6.6-5.9,6.8-6.2c0.1-0.2,2.1-1.9,25.4-21.1c1.8-1.5,2.9-2.4,3-2.5l0.7,0.8c-0.1,0.1-1.2,1-3,2.5
	c-6.7,5.6-24.6,20.4-25.2,21c-0.1,0.1-1,0.9-6.9,6.3c-6.7,6-16.8,15.1-17.6,16.1c-1.6,2.1-9.1,13.1,1.3,23.7
	c6.7,6.9,24.5,9.4,29.5,6.6l0.5,0.9C261.9,302.7,259.3,303.1,256.3,303.1z"/>
<path class="st0" d="M209.5,422.2c0,0,6.6-56.4,11.9-74.4c5.3-18,16.7-45.5,39.8-42.3c23.1,3.2,29,7.1,29,7.1l-56,115.1L209.5,422.2
	z"/>
<path class="st1" d="M235,429.5l-27.2-6.1l0.2-1.4c0.3-2.3,6.7-56.7,12-74.7c9.1-30.9,23.4-45.9,41.5-43.4
	c23.2,3.2,29.4,7.2,29.6,7.3l1.1,0.8L235,429.5z M211.2,421l22.1,4.9l54.8-112.6c-2.7-1.2-10.2-3.9-27.1-6.2
	c-16.5-2.3-29.3,11.6-38.1,41.2C218.2,364.4,212.3,412.2,211.2,421z"/>
<path class="st6" d="M235.9,348c-0.3,0-0.6,0-0.8-0.1c-1.1-0.2-2.1-0.9-2.8-2c-0.9-1.4-1.3-3.4-0.9-5.3c0.3-1.6,1.2-3.1,2.3-4.1
	c1.2-1,2.6-1.4,4-1.1c2.8,0.6,4.4,3.8,3.7,7.3C240.8,345.8,238.4,348,235.9,348z M236.9,336.3c-0.8,0-1.7,0.3-2.4,1
	c-1,0.8-1.7,2.1-2,3.5c-0.3,1.6-0.1,3.3,0.7,4.5c0.6,0.8,1.3,1.4,2.2,1.6c2.2,0.4,4.5-1.5,5.1-4.4c0.6-2.9-0.7-5.6-2.9-6.1
	C237.3,336.3,237.1,336.3,236.9,336.3z"/>
<path class="st0" d="M342.2,437.2l-88.9-15.2c-2.7-0.5-4.6-3.1-4.1-5.8c0.4-2,1.9-3.5,3.8-4l93.1-23.1l58.3,0.8l-50.6,44.1
	C350.7,436.7,346.4,437.9,342.2,437.2"/>
<path class="st1" d="M344.6,438.9c-0.9,0-1.8-0.1-2.7-0.2L253,423.5c-1.7-0.3-3.3-1.3-4.3-2.7c-1-1.5-1.4-3.2-1.1-5
	c0.5-2.6,2.4-4.6,5-5.3l93.3-23.1l0.2,0l62.4,0.8L354.9,435C352,437.6,348.4,438.9,344.6,438.9z M342.4,435.6
	c3.8,0.6,7.6-0.4,10.4-2.9l47.5-41.4l-54.1-0.7l-92.9,23c-1.4,0.3-2.4,1.4-2.7,2.8c-0.2,0.9,0,1.8,0.6,2.6c0.5,0.8,1.3,1.3,2.2,1.4
	L342.4,435.6z"/>
<path d="M355,461.9c-38.2-7-107.6-20-142.9-27.9c-36.2-8.1-67.6-19.6-83.1-25.8l0.8-1.9c15.4,6.1,46.7,17.7,82.8,25.7
	c35.2,7.8,104.6,20.8,142.8,27.9L355,461.9z"/>
<path class="st1" d="M174.1,451.4c-18.8,0-34.1-15.8-36.5-37.6l1-0.1c2.3,21.2,17.3,36.7,35.5,36.7c7.6,0,14.9-2.8,21-8.1l0.7,0.8
	C189.5,448.5,182,451.4,174.1,451.4z"/>
<path class="st0" d="M336.7,47.5c0,0,9.1-3.1,14.9,4.5c3.9,5.1,7.8,15.7,1.6,56c-2.3,13.9-2.7,20-8,20.9"/>
<path class="st1" d="M345.3,129.5l-0.2-1c4.4-0.8,5.2-5.8,7-16.6c0.2-1.2,0.4-2.5,0.6-3.9c6.1-39.6,2.5-50.5-1.5-55.6
	c-5.5-7.2-14.2-4.4-14.3-4.3l-0.3-1c0.1,0,9.5-3.1,15.5,4.7c4.3,5.6,7.8,16.6,1.7,56.4c-0.2,1.4-0.4,2.7-0.6,3.9
	C351.2,123.4,350.4,128.5,345.3,129.5z"/>
<path class="st2" d="M355.2,70.1c0.3,11-4.8,20-11.5,20c-6.7,0-12.4-8.9-12.7-20c-0.3-11,4.8-20,11.5-20
	C349.1,50.1,354.8,59.1,355.2,70.1"/>
<path class="st0" d="M276.9,67.9c-0.4,7.2-6.4,13.4-13.1,14c-6.6,0.5-11.5-4.6-11.1-11.5c0.4-6.9,6-13.1,12.6-13.9
	C272,55.7,277.3,60.8,276.9,67.9"/>
<path class="st6" d="M262.8,83c-3,0-5.7-1.1-7.8-3.1c-2.4-2.4-3.7-5.8-3.4-9.5c0.4-7.5,6.4-14,13.5-14.9c3.5-0.4,6.8,0.6,9.2,2.8
	c2.5,2.4,3.8,5.8,3.6,9.7c-0.4,7.7-6.8,14.4-14.1,15C263.5,83,263.2,83,262.8,83z M266.7,57.5c-0.4,0-0.9,0-1.3,0.1
	c-6.1,0.8-11.3,6.6-11.7,12.9c-0.2,3.1,0.8,6,2.8,7.9c1.9,1.8,4.4,2.7,7.2,2.5c6.3-0.5,11.8-6.3,12.2-13l0,0c0.2-3.2-0.9-6.1-2.9-8
	C271.3,58.3,269.1,57.5,266.7,57.5z"/>
<path class="st0" d="M241.9,192.8c0,4.2-2.5,7.7-5.7,7.7c-3.1,0-5.7-3.4-5.7-7.7c0-4.2,2.5-7.7,5.7-7.7
	C239.3,185.1,241.9,188.6,241.9,192.8"/>
<path class="st0" d="M332.4,322.3c0,0,10.6,11.5,11.8,23.6c1.2,12.1,2,43.1,2,43.1h18.6c0,0,0.2-30.8-0.4-43.1
	c-0.6-12.9-0.6-20.2-17.4-28.8C344.8,316,325.6,315.8,332.4,322.3"/>
<path class="st1" d="M366.8,391h-22.7l-0.1-2c0-0.3-0.8-31-1.9-42.9c-1.1-10.9-10.6-21.6-11.2-22.3c-3-2.9-1.9-5.2-1.3-6.1
	c3-4.2,16.3-3.5,18.3-2.4c17.6,9,18,17.3,18.5,29.8l0,0.7c0.6,12.2,0.4,42.9,0.4,43.2L366.8,391z M348.2,386.9h14.5
	c0-7.1,0.1-30.7-0.4-40.9l0-0.7c-0.5-12.2-0.8-18.4-16.3-26.3c-1.8-0.7-11.3-0.5-12.9,1c0.1,0.1,0.3,0.4,0.8,0.8l0.1,0.1
	c0.5,0.5,11.1,12.1,12.4,24.8C347.3,356.1,348,379.8,348.2,386.9z"/>
<path class="st0" d="M234.2,427.7c0,0,9.4-73.2,15.1-88.1c5.7-14.9,10.8-36.4,25.6-31.3c14.9,5.1,24.7,8.6,36,16.8
	c11.4,8.2,27,23.5,30.9,39.5c3.9,16.1,4.3,24.3,4.3,24.3l-96.3,23.9L234.2,427.7z"/>
<path class="st1" d="M232.1,431.9l0.6-4.4c0.4-3,9.5-73.6,15.2-88.5c0.8-2,1.5-4.1,2.2-6.2c4.9-13.8,11-31,25.4-26.1
	c15.2,5.2,25,8.8,36.4,17.1c12.7,9.2,27.7,24.7,31.5,40.4c3.9,16,4.3,24.2,4.4,24.6l0.1,1.3l-1.2,0.3l-95.9,23.8L232.1,431.9z
	 M270.6,309.1c-8.1,0-12.5,10.5-17.6,24.8c-0.8,2.1-1.5,4.3-2.3,6.2c-4.7,12.4-12.3,67.4-14.4,83.4l12.8-12.1l95.4-23.7
	c-0.3-2.9-1.2-10.5-4.2-22.7c-3.6-14.9-18.1-29.8-30.3-38.7c-11.1-8-20.7-11.5-35.6-16.6C273,309.3,271.8,309.1,270.6,309.1z"/>
<path d="M250.9,412.9l-2.1-0.2c0.2-2.5,5.2-61.4,12.2-77.5c0.6-1.4,1.2-2.7,1.8-4.1c6-14,10.3-24.2,27.7-19.6l-0.5,2
	c-15.6-4.1-19.2,4.4-25.2,18.4c-0.6,1.3-1.1,2.7-1.8,4.1C256,351.8,250.9,412.3,250.9,412.9z"/>
<path d="M493.5,356.4l-4.1-0.7c0-0.1,2-12.7-4.4-18.5l2.8-3.1C495.9,341.5,493.6,355.8,493.5,356.4z"/>
<path class="st2" d="M346.9,241c0,0-28.7,32.2-45.2,43.9c-4.6,3.3-5.7,10.2-1.1,13.4c4.7,3.2,18,6.1,26.9,7
	c6.5,0.7,13.2-2.8,16.7-12.3c3.5-9.5,4-21.8,3.4-45C347.5,243.9,346.9,241,346.9,241"/>
<path class="st0" d="M348.9,449.7c0,0,5.5-1.4,7,15.8l17.8-46.2l-11-11C362.8,408.3,348.1,429.7,348.9,449.7"/>
<path class="st1" d="M354.3,477.2l-1.1-11.5c-1-10.9-3.5-13-4-13.3l-2.9,0.7l-0.1-3.3c-0.9-20.6,13.7-42.1,14.4-43l1.8-2.7
	l14.5,14.5L354.3,477.2z M351.6,447.5c0.3,0.1,0.6,0.3,0.9,0.5c1.9,1.4,3.4,3.8,4.5,7.4l13.7-35.5l-7.3-7.3
	C359.7,418.6,351.8,433.3,351.6,447.5z"/>
<path class="st0" d="M511,461.4c9.6-64.9-12.9-121.6-56.6-128.1c-43.7-6.5-86.9,40.9-96.6,105.8c-9.6,64.9,18,122.8,61.7,129.3
	C463.2,574.8,501.4,526.3,511,461.4"/>
<path class="st1" d="M427.3,571c-2.7,0-5.4-0.2-8-0.6c-44.8-6.6-73.2-65.7-63.5-131.6c9.8-65.9,54.1-114.2,98.9-107.5
	c21.6,3.2,39.3,18.6,49.9,43.4c10.2,23.9,13.2,54.8,8.4,87.1c-4.8,32.3-16.7,61.2-33.4,81.3C464.4,561.3,446.1,571,427.3,571z
	 M446.4,334.8c-39.8,0-77.6,44.8-86.5,104.6c-9.4,63.7,17.5,120.6,59.9,126.9c20.1,3,40.2-6.3,56.6-26
	c16.3-19.5,27.8-47.7,32.5-79.2c4.7-31.5,1.8-61.6-8.2-84.8c-10-23.4-26.6-37.9-46.7-40.9C451.5,335,448.9,334.8,446.4,334.8z"/>
<path d="M445.8,558.4C445.8,558.4,445.7,558.4,445.8,558.4c-8.8,0-16.6-3.7-23.1-11.1c-15.2-17-21.8-52.4-17.3-92.3
	c6.4-56.9,36.4-103.2,66.8-103.2c0,0,0,0,0.1,0c8.8,0,16.5,3.7,23,11c15.2,17.1,21.5,51.3,17,91.7l0,0
	C505.8,511.9,476,558.4,445.8,558.4z M472.2,353.9c-29.4,0-58.4,45.4-64.7,101.3c-4.5,39.4,2,74.1,16.7,90.7
	c6.1,6.9,13.3,10.4,21.5,10.4c0,0,0,0,0.1,0c29.1,0,58-45.7,64.4-101.9c4.4-39.2-1.9-73.8-16.5-90.1
	C487.6,357.4,480.4,354,472.2,353.9C472.2,353.9,472.2,353.9,472.2,353.9z"/>
<path d="M451.1,540.4C451.1,540.4,451.1,540.4,451.1,540.4c-7.3,0-13.7-3.1-19.1-9.2c-12.5-14-18-43.2-14.3-76.2
	c5.3-46.9,30-85.1,55.1-85.1c0,0,0,0,0.1,0c7.3,0,13.7,3.1,19.1,9.1c12.5,14.1,17.8,42.4,14,75.7C500.7,502,476.1,540.4,451.1,540.4
	z M472.9,372c-24.1,0-47.9,37.3-53.1,83.3c-3.7,32.4,1.6,60.9,13.7,74.5c5,5.6,10.9,8.5,17.6,8.5c0,0,0,0,0,0
	c23.9,0,47.6-37.6,52.8-83.8l1,0.1l-1-0.1c3.6-32.2-1.5-60.6-13.5-74.1C485.5,374.9,479.6,372,472.9,372
	C472.9,372,472.9,372,472.9,372z"/>
<path class="st2" d="M499.8,456.1c-3.8,35.6-21,64.5-38.5,64.4c-17.5,0-29.6-29.7-25.8-65.4c3.8-35.6,24-62.8,41.5-62.7
	C494.4,392.5,503.6,420.4,499.8,456.1"/>
<path class="st0" d="M348.9,449.7c0,0-1.2-18.4,5.5-37.6c6.7-19.2,22.7-54.7,43.9-70.4c21.1-15.7,48.9-29.8,88.1-5.9
	c0,0-30.1-13.3-77.9,27.8C360.6,404.6,348.1,436.3,348.9,449.7"/>
<path class="st1" d="M346.8,449.8C346.8,449.8,346.8,449.8,346.8,449.8L346.8,449.8c-0.1-0.9-1.1-19.1,5.6-38.4
	c3-8.6,19.2-52.6,44.6-71.4c22.4-16.6,50.6-30.3,90.4-6l-1.9,3.7c-0.3-0.1-29.7-12.1-75.7,27.5c-47.9,41.2-59.5,72.5-58.8,84.4
	L346.8,449.8z M445.9,325c-18.4,0-33.4,8.6-46.4,18.3c-18.9,14.1-35.1,46.2-43.1,69.5c-1.7,4.8-2.9,9.7-3.7,14.1
	c8-17,24.9-39.5,54.4-64.9c30.2-26,53.4-30.8,66.9-30.4C463.8,326.9,454.5,325,445.9,325z"/>
<path class="st1" d="M173.6,448.6c-1.5,0-2.8-1.5-2.8-3.3c0-2,1.5-3.5,3.2-3.2l7.9-0.4c0.1,0,0.3,0,0.4,0.2c0.1,0.1,0.2,0.3,0.1,0.4
	l-0.3,4c0,0.2-0.2,0.4-0.4,0.5l-7.1,1.5C174.4,448.5,174,448.6,173.6,448.6z M173.6,443.1c-1,0-1.7,1-1.7,2.2c0,1.5,1.3,2.8,2.5,2
	c0,0,0.1,0,0.2-0.1l6.8-1.4l0.2-3.1l-7.4,0.3c0,0-0.1,0-0.1,0C173.8,443.1,173.7,443.1,173.6,443.1z"/>
<path class="st0" d="M183.7,444.2c0,1.1-0.7,2-1.6,2s-1.6-0.9-1.6-2c0-1.1,0.7-2,1.6-2S183.7,443.1,183.7,444.2"/>
<path class="st1" d="M182,446.7c-1.2,0-2.2-1.1-2.2-2.5s1-2.5,2.2-2.5c1.2,0,2.2,1.1,2.2,2.5S183.2,446.7,182,446.7z M182,442.7
	c-0.6,0-1.1,0.7-1.1,1.5c0,0.8,0.5,1.5,1.1,1.5s1.1-0.7,1.1-1.5C183.1,443.4,182.6,442.7,182,442.7z"/>
<path class="st6" d="M236.1,416.6l-25.9-5.6l2.5-15.8l0.5,0.1l25.3,4.1L236.1,416.6z M211.4,410.2l23.8,5.1l2.2-15l-23.8-3.9
	L211.4,410.2z"/>
<path class="st7" d="M295.6,120.9v8.4c0,3.9-3.1,7.1-7,7.3l-57.5,2.6c-4.2,0.2-7.6-3.1-7.6-7.3v-7.1L295.6,120.9z"/>
<path class="st0" d="M273.7,132.3l-42.4,2.1c-2.1,0.1-3.8-1.5-3.8-3.6c0-1.9,1.5-3.5,3.4-3.6l42.4-2.1c2.1-0.1,3.8,1.5,3.8,3.6
	C277.1,130.6,275.6,132.2,273.7,132.3"/>
<path class="st6" d="M284.6,133.9c-0.1,0-0.1,0-0.2,0c-2.7-0.1-4.7-2.9-4.6-6.2c0.1-1.8,0.8-3.5,2-4.6c0.9-0.8,2-1.3,3.1-1.2
	c2.7,0.1,4.7,2.9,4.6,6.2l0,0c-0.1,1.6-0.6,3.1-1.5,4.2C287.1,133.3,285.9,133.9,284.6,133.9z M284.8,122.9c-0.8,0-1.5,0.3-2.2,0.9
	c-1,0.9-1.6,2.3-1.7,3.9c-0.1,2.7,1.5,5.1,3.6,5.1c1,0,1.9-0.4,2.7-1.3c0.8-0.9,1.2-2.2,1.3-3.5c0.1-2.7-1.5-5.1-3.6-5.1
	C284.9,122.9,284.8,122.9,284.8,122.9z"/>
<path class="st6" d="M284.7,131.2C284.6,131.2,284.6,131.2,284.7,131.2c-0.7,0-1.3-0.3-1.8-0.8c-0.6-0.6-0.9-1.6-0.9-2.6
	c0.1-1.8,1.3-3.2,2.7-3.2c0,0,0.1,0,0.1,0c1.5,0.1,2.6,1.6,2.5,3.4v0C287.3,129.8,286.1,131.2,284.7,131.2z M284.8,125.6
	c-0.9,0-1.6,1-1.7,2.2c0,0.7,0.2,1.4,0.6,1.8c0.2,0.2,0.5,0.5,0.9,0.5c0,0,0,0,0,0c0.9,0,1.6-1,1.7-2.2l0,0
	C286.4,126.7,285.7,125.7,284.8,125.6C284.8,125.6,284.8,125.6,284.8,125.6z"/>
</svg>
